<?xml version="1.0" standalone="no"?>
<!DOCTYPE svg PUBLIC "-//W3C//DTD SVG 20010904//EN"
 "http://www.w3.org/TR/2001/REC-SVG-20010904/DTD/svg10.dtd">
<svg version="1.0" xmlns="http://www.w3.org/2000/svg"
 width="1991.000000pt" height="402.000000pt" viewBox="0 0 1991.000000 402.000000"
 preserveAspectRatio="xMidYMid meet">

<g transform="translate(0.000000,402.000000) scale(0.100000,-0.100000)"
fill="#000000" stroke="none">
<path d="M1190 4014 c-599 -74 -1035 -463 -1162 -1036 -23 -103 -23 -105 -23
-958 0 -946 -2 -914 67 -1130 121 -378 449 -703 828 -820 166 -52 245 -60 554
-60 314 0 402 10 564 61 326 105 611 357 765 676 53 111 59 170 24 246 -49
108 -109 130 -343 125 -202 -4 -216 -10 -296 -129 -73 -109 -167 -196 -267
-248 -121 -63 -170 -71 -442 -71 -201 0 -247 3 -311 19 -239 61 -409 230 -475
471 -17 60 -18 128 -18 850 0 858 -2 832 60 965 82 179 216 294 415 357 70 22
91 23 325 23 206 0 261 -3 312 -17 163 -45 308 -156 407 -310 20 -31 52 -70
73 -85 l36 -28 203 0 202 0 43 30 c60 42 94 111 94 190 0 166 -248 500 -488
659 -152 100 -291 159 -465 197 -83 18 -136 22 -372 24 -151 2 -291 1 -310 -1z"/>
<path d="M3270 2122 c0 -2120 -6 -1956 74 -2030 25 -23 57 -45 73 -49 15 -4
82 -8 148 -8 108 1 126 3 176 27 71 32 124 86 158 157 l26 56 5 710 5 710 23
58 c73 179 227 325 442 418 202 87 414 93 564 17 91 -46 180 -155 229 -278 54
-139 57 -188 57 -984 0 -689 1 -733 19 -772 26 -57 83 -101 150 -115 71 -15
230 -6 293 16 61 22 126 80 163 146 l30 54 3 710 c3 769 0 833 -48 1021 -62
241 -158 410 -330 585 -128 129 -198 179 -328 234 -371 155 -807 126 -1189
-81 l-83 -44 0 665 0 665 -330 0 -330 0 0 -1888z"/>
<path d="M9710 3424 c-148 -50 -161 -56 -191 -81 -60 -51 -69 -84 -69 -268 l0
-165 -170 0 -170 0 0 -335 0 -335 170 0 170 0 0 -715 c0 -778 1 -792 57 -933
78 -195 262 -374 464 -452 151 -58 238 -74 409 -74 188 -1 243 15 309 90 53
61 64 113 60 286 -4 151 -11 169 -79 215 -43 30 -85 41 -200 54 -121 13 -257
44 -296 68 -66 40 -64 16 -64 775 l0 686 153 0 c175 0 250 10 315 42 60 29
124 93 158 160 25 47 29 66 32 171 5 146 -1 178 -40 223 -60 68 -65 69 -354
72 l-262 3 -4 162 c-3 144 -6 167 -26 208 -70 144 -212 199 -372 143z"/>
<path d="M14226 3409 c-133 -46 -186 -87 -205 -156 -6 -21 -11 -107 -11 -190
l0 -153 -170 0 -170 0 0 -335 0 -335 170 0 169 0 3 -742 c4 -740 4 -743 26
-817 122 -398 494 -638 960 -619 119 5 192 30 246 84 56 57 66 93 66 264 0
173 -6 194 -72 243 -45 33 -85 45 -203 58 -122 13 -258 44 -297 67 -15 9 -37
35 -48 57 -19 40 -20 64 -20 723 l0 682 153 0 c251 0 334 24 422 123 68 75 88
138 89 283 1 117 0 122 -29 169 -53 86 -68 90 -372 93 l-261 3 -4 167 c-3 149
-6 171 -25 208 -54 101 -133 154 -238 160 -50 3 -80 -3 -179 -37z"/>
<path d="M18814 3412 c-125 -43 -152 -57 -188 -105 -34 -45 -46 -113 -46 -268
l0 -129 -165 0 -165 0 0 -335 0 -335 165 0 165 0 0 -647 c1 -829 5 -876 95
-1060 35 -71 64 -112 126 -178 134 -141 266 -215 477 -267 118 -29 361 -32
437 -5 64 22 119 67 148 120 20 39 22 56 22 208 l0 166 -28 36 c-46 61 -116
87 -277 102 -93 9 -224 39 -261 61 -17 11 -40 35 -50 54 -18 33 -19 71 -19
722 l0 688 153 0 c240 0 313 19 403 106 73 71 98 137 102 272 5 140 -1 173
-40 218 -60 68 -65 69 -354 72 l-262 3 -4 162 c-4 142 -7 168 -27 209 -32 67
-107 133 -172 152 -76 23 -110 19 -235 -22z"/>
<path d="M7655 2930 c-260 -28 -518 -123 -740 -273 -175 -119 -389 -360 -480
-540 -50 -98 -110 -275 -131 -385 -20 -103 -19 -432 1 -548 34 -190 127 -415
234 -563 45 -62 61 -93 61 -117 0 -18 -21 -84 -46 -146 -73 -178 -115 -300
-109 -316 8 -20 47 -14 404 67 l303 69 48 -25 c106 -55 251 -37 326 41 64 67
66 79 62 526 -3 432 -2 422 -65 482 -43 41 -99 60 -178 61 -113 1 -194 -48
-238 -143 -18 -39 -22 -71 -27 -240 l-5 -195 -59 60 c-71 74 -188 247 -217
324 -65 171 -91 364 -70 512 14 95 66 259 110 346 129 256 405 468 718 550 73
19 132 26 233 30 165 6 282 -15 463 -83 173 -64 274 -60 359 15 31 28 42 46
49 84 15 83 -16 190 -64 222 -88 57 -338 142 -497 169 -118 19 -339 27 -445
16z"/>
<path d="M11825 2894 c-91 -19 -254 -99 -332 -164 -124 -101 -211 -236 -255
-396 -19 -69 -21 -104 -21 -289 0 -183 2 -220 21 -287 84 -305 331 -525 638
-568 42 -5 220 -10 397 -10 358 0 355 0 383 -66 19 -46 19 -302 1 -347 -28
-65 5 -62 -616 -67 l-566 -5 -57 -28 c-71 -35 -141 -111 -163 -177 -13 -39
-16 -81 -13 -202 3 -169 7 -181 77 -229 l35 -24 595 -3 c379 -2 630 1 688 7
180 21 326 93 458 226 127 126 192 249 221 417 22 125 15 492 -11 583 -41 145
-114 263 -227 370 -88 83 -174 136 -283 172 -80 27 -81 27 -460 33 -278 4
-386 8 -402 18 -47 26 -53 48 -53 189 0 132 0 133 29 165 l29 33 449 5 448 5
57 28 c71 35 140 110 167 183 17 45 21 78 21 187 0 149 -8 171 -76 223 l-37
29 -536 2 c-440 1 -549 -1 -606 -13z"/>
<path d="M16000 2576 l0 -336 484 0 484 0 53 -28 c42 -21 61 -40 87 -82 17
-30 32 -60 32 -67 0 -10 -42 -13 -192 -13 -584 0 -906 -90 -1155 -323 -188
-177 -288 -405 -300 -687 -12 -291 48 -491 206 -684 147 -182 352 -290 596
-317 135 -14 422 -6 520 16 84 18 246 71 297 96 l36 18 10 -27 c5 -15 24 -41
42 -59 45 -44 107 -57 250 -51 97 4 126 9 172 30 68 31 133 94 162 157 l21 46
0 935 c0 871 -1 940 -18 1013 -25 105 -67 204 -121 285 -47 71 -163 191 -232
242 -71 51 -199 110 -301 137 l-98 27 -517 4 -518 4 0 -336z m1147 -1323 c-6
-152 -21 -211 -78 -297 -60 -90 -224 -207 -338 -240 -84 -25 -391 -22 -446 3
-52 24 -88 58 -116 112 -20 38 -23 59 -24 154 0 100 2 115 28 167 33 67 85
117 164 156 136 68 216 80 547 81 l269 1 -6 -137z"/>
<path d="M8457 2356 c-57 -21 -103 -61 -126 -109 -21 -43 -21 -49 -21 -948 0
-631 3 -916 11 -944 17 -60 82 -119 154 -140 70 -21 156 -15 213 14 45 24 97
76 111 114 8 19 11 322 11 943 0 803 -2 919 -15 952 -36 84 -103 124 -220 129
-52 2 -93 -2 -118 -11z"/>
<path d="M7840 1841 c-75 -27 -124 -81 -139 -152 -8 -38 -11 -260 -9 -740 l3
-685 26 -40 c80 -120 309 -139 417 -33 58 57 57 41 57 799 0 382 -3 707 -8
722 -10 39 -63 96 -111 120 -59 30 -165 34 -236 9z"/>
</g>
</svg>
