<svg xmlns="http://www.w3.org/2000/svg" xmlns:xlink="http://www.w3.org/1999/xlink" width="82" height="82" viewBox="0 0 82 82">
  <defs>
    <linearGradient id="linear-gradient" x1="0.5" x2="0.5" y2="1" gradientUnits="objectBoundingBox">
      <stop offset="0" stop-color="#f3f6ff"/>
      <stop offset="1" stop-color="#e3e9f9"/>
    </linearGradient>
  </defs>
  <g id="Group_12723" data-name="Group 12723" transform="translate(1196 -12339)">
    <g id="Group_85" data-name="Group 85" transform="translate(-1196 12339)">
      <rect id="Rectangle_4364" data-name="Rectangle 4364" width="82" height="82" rx="41" fill="url(#linear-gradient)"/>
    </g>
    <g id="noun-complete-3549778" transform="translate(-1175.887 12359.113)">
      <path id="Path_8206" data-name="Path 8206" d="M210.587,116a5.358,5.358,0,0,1-3.664,1.695,16.784,16.784,0,1,1-5.592-5.586,5.357,5.357,0,0,1,1.688-3.677A21.1,21.1,0,1,0,210.575,116Z" transform="translate(-171.241 -105.531)" fill="#5e6d9e"/>
      <path id="Path_8207" data-name="Path 8207" d="M279.482,217.752l-5.2-4.689-2.679,2.988,6.7,6.028a2.009,2.009,0,0,0,1.339.529h.114a2.008,2.008,0,0,0,1.393-.67l10.717-12.057-3-2.679Z" transform="translate(-259.6 -195.041)" fill="#5e6d9e"/>
      <path id="Path_8208" data-name="Path 8208" d="M454.821,147.612a2.009,2.009,0,1,1-2.009-2.009,2.009,2.009,0,0,1,2.009,2.009" transform="translate(-417.363 -140.81)" fill="#5e6d9e"/>
    </g>
  </g>
</svg>
