<?xml version="1.0" encoding="UTF-8" standalone="no"?>
<!-- Created with Inkscape (http://www.inkscape.org/) -->

<svg
   xmlns:dc="http://purl.org/dc/elements/1.1/"
   xmlns:cc="http://creativecommons.org/ns#"
   xmlns:rdf="http://www.w3.org/1999/02/22-rdf-syntax-ns#"
   xmlns:svg="http://www.w3.org/2000/svg"
   xmlns="http://www.w3.org/2000/svg"
   xmlns:sodipodi="http://sodipodi.sourceforge.net/DTD/sodipodi-0.dtd"
   xmlns:inkscape="http://www.inkscape.org/namespaces/inkscape"
   width="193.72801mm"
   height="206.34874mm"
   viewBox="0 0 193.72801 206.34874"
   version="1.1"
   id="svg8"
   inkscape:version="0.92.3 (2405546, 2018-03-11)"
   sodipodi:docname="Visva-Bharati University logo.svg">
  <defs
     id="defs2" />
  <sodipodi:namedview
     id="base"
     pagecolor="#ffffff"
     bordercolor="#666666"
     borderopacity="1.0"
     inkscape:pageopacity="0.0"
     inkscape:pageshadow="2"
     inkscape:zoom="0.35"
     inkscape:cx="390.82649"
     inkscape:cy="276.59458"
     inkscape:document-units="mm"
     inkscape:current-layer="layer1"
     showgrid="false"
     fit-margin-top="0"
     fit-margin-left="0"
     fit-margin-right="0"
     fit-margin-bottom="0"
     inkscape:window-width="1366"
     inkscape:window-height="705"
     inkscape:window-x="-8"
     inkscape:window-y="-8"
     inkscape:window-maximized="1" />
  <metadata
     id="metadata5">
    <rdf:RDF>
      <cc:Work
         rdf:about="">
        <dc:format>image/svg+xml</dc:format>
        <dc:type
           rdf:resource="http://purl.org/dc/dcmitype/StillImage" />
        <dc:title></dc:title>
      </cc:Work>
    </rdf:RDF>
  </metadata>
  <g
     inkscape:label="Layer 1"
     inkscape:groupmode="layer"
     id="layer1"
     transform="translate(-9.2793138,-13.090565)">
    <path
       style="fill:#000000;stroke-width:0.63103586"
       d="M 9.2793138,116.26493 V 13.090565 H 106.14331 203.00733 V 116.26493 219.4393 H 106.14331 9.2793138 Z M 198.59008,196.09097 V 177.15989 H 106.45883 14.327604 v 18.93108 18.93107 h 92.131226 92.13125 z M 40.200074,208.08065 c -0.52061,-0.33644 -2.54459,-0.61606 -4.49775,-0.62137 -2.48389,-0.007 -3.80432,-0.31467 -4.39343,-1.0245 -0.7156,-0.86225 -0.66164,-1.1469 0.35886,-1.89311 0.66061,-0.48305 2.16153,-0.87827 3.33539,-0.87827 1.68761,0 2.09007,-0.2296 1.92301,-1.09707 -0.1162,-0.60338 -0.77595,-1.18237 -1.4661,-1.28664 -3.72701,-0.56306 -4.21783,-0.88987 -5.42082,-3.60942 -0.73294,-1.65694 -1.0798,-3.40736 -0.85371,-4.30819 0.26432,-1.05313 0.0769,-1.63394 -0.61267,-1.89855 -0.54643,-0.20968 -0.9935,-0.95808 -0.9935,-1.66312 0,-1.25119 0.34358,-1.28164 14.35606,-1.27221 7.89584,0.005 14.64004,0.21829 14.98711,0.47328 1.11112,0.81632 0.97069,1.98388 -0.3218,2.6756 -1.13648,0.60822 -1.25579,1.32945 -1.25579,7.59127 0,3.80555 -0.23996,6.91919 -0.53324,6.91919 -0.29327,0 -0.99172,-0.50662 -1.5521,-1.12584 -0.75334,-0.83243 -1.06663,-2.68258 -1.20212,-7.09916 l -0.18324,-5.97331 h -1.89311 -1.89311 l -0.17842,7.09916 c -0.0981,3.90453 -0.43699,7.09915 -0.75301,7.09915 -0.31603,0 -1.01664,-0.63112 -1.55693,-1.40248 -0.71772,-1.02469 -0.98233,-2.97951 -0.98233,-7.25691 0,-5.77499 -0.0207,-5.85443 -1.52954,-5.85443 -1.46567,0 -1.53996,0.20423 -1.77896,4.89052 -0.13718,2.6898 -0.63551,5.78295 -1.10739,6.87368 -0.75495,1.74501 -0.73076,2.11037 0.20137,3.0425 0.58263,0.58264 1.05934,1.32302 1.05934,1.6453 0,0.72135 -0.0806,0.71848 -1.26207,-0.0451 z m -2.90718,-10.4637 c 0.21067,-0.54899 0.38303,-2.11081 0.38303,-3.4707 0,-2.28732 -0.13235,-2.47253 -1.7669,-2.47253 -0.97179,0 -2.10766,0.34076 -2.52414,0.75724 -0.80124,0.80125 -1.04938,5.05063 -0.33655,5.76346 0.82728,0.82728 3.86405,0.41413 4.24456,-0.57747 z m 99.771176,8.19046 c -0.69414,-0.53406 -1.1784,-1.27297 -1.07614,-1.64203 0.12142,-0.4382 -0.5354,-0.5181 -1.89311,-0.23029 -5.74942,1.21878 -5.89354,1.20401 -8.2248,-0.84285 -3.30086,-2.8982 -3.58169,-4.88016 -1.02946,-7.26543 1.7022,-1.59085 2.55413,-1.9128 4.93195,-1.8638 1.58087,0.0326 3.53818,0.28036 4.34958,0.55065 1.2999,0.43301 1.44991,0.31219 1.26207,-1.0165 -0.20312,-1.43665 -0.46524,-1.51668 -5.54555,-1.69325 -4.98098,-0.1731 -6.97285,-0.77316 -6.97285,-2.10056 0,-0.30458 3.53282,-0.55378 7.85071,-0.55378 4.31789,0 8.01574,-0.26703 8.21746,-0.59342 0.88331,-1.42922 -5.49858,-5.42457 -9.75102,-6.10456 -2.29949,-0.36771 -2.55508,-0.26208 -3.14963,1.30171 -0.72514,1.90728 -2.69544,2.01775 -3.05107,0.17108 -0.14672,-0.76186 0.44887,-1.38577 1.90277,-1.99325 4.11049,-1.71747 11.20704,0.46763 15.37235,4.7333 1.33467,1.36683 2.91375,2.48514 3.50907,2.48514 1.76076,0 3.07873,0.70425 3.07873,1.64511 0,0.65369 -0.97063,0.87904 -3.78622,0.87904 -3.61794,0 -3.78622,0.0701 -3.78622,1.57759 0,1.37601 0.27646,1.57759 2.16356,1.57759 3.24693,0 4.1468,1.30259 4.1468,6.00267 0,2.21068 -0.23768,4.16632 -0.52819,4.34586 -0.29051,0.17954 -1.14241,-0.10377 -1.89311,-0.62958 -1.05096,-0.73611 -1.36491,-1.60095 -1.36491,-3.75989 0,-2.38319 -0.18936,-2.80388 -1.26207,-2.80388 -1.14188,0 -1.26208,0.42069 -1.26208,4.41725 0,2.42949 -0.21297,4.40822 -0.47327,4.39718 -0.2603,-0.011 -1.04121,-0.45703 -1.73535,-0.9911 z m -5.87816,-4.00862 c 0.8035,-0.33138 2.13891,-1.14299 2.96758,-1.80356 l 1.50667,-1.20104 -2.0769,-1.03609 c -2.99104,-1.49213 -6.70843,-1.36954 -7.57508,0.24981 -1.63841,3.06141 1.455,5.32626 5.17773,3.79088 z m -69.117296,3.23475 c -0.81856,-0.90449 -1.04436,-2.45894 -1.04436,-7.1894 0,-4.78267 -0.19647,-6.11079 -0.94655,-6.39862 -0.52061,-0.19978 -0.94656,-0.94007 -0.94656,-1.64511 0,-1.25545 0.33659,-1.28187 16.32967,-1.28187 12.3415,0 16.46775,0.19264 16.89505,0.78879 0.86233,1.2031 0.28556,16.885 -0.62008,16.85922 -1.44036,-0.041 -3.57699,-2.4139 -3.57699,-3.97252 0,-2.5873 -0.6209,-3.47769 -2.96445,-4.25114 -1.93647,-0.63909 -2.43581,-0.57135 -3.88817,0.52742 -1.80055,1.36219 -1.88156,2.89455 -0.24954,4.71981 0.90521,1.01238 0.88335,1.10431 -0.26247,1.10431 -1.31986,0 -3.54044,-2.08735 -4.19569,-3.94397 -0.47673,-1.35076 -2.68194,-1.4601 -3.1817,-0.15776 -0.50303,1.31087 -3.14528,1.18649 -4.40677,-0.20745 -0.5744,-0.6347 -1.04436,-1.89168 -1.04436,-2.79329 0,-1.60634 0.10467,-1.64582 5.20605,-1.9639 2.86332,-0.17852 6.56042,-0.51238 8.21576,-0.74191 2.24558,-0.31137 3.4015,-0.16062 4.55281,0.59375 2.04865,1.34232 2.04134,1.3461 2.33987,-1.21102 l 0.25942,-2.22209 -11.70679,0.17122 -11.70678,0.17122 -0.17842,7.09916 c -0.18761,7.46459 -0.64643,8.41206 -2.87895,5.94515 z m 35.57792,-0.0666 c -0.35928,-0.67132 -0.65324,-3.90381 -0.65324,-7.18331 0,-5.43202 -0.11233,-5.9921 -1.26207,-6.29277 -0.69414,-0.18152 -1.26207,-0.78257 -1.26207,-1.33567 0,-0.88881 1.56819,-1.00563 13.499756,-1.00563 11.72788,0 13.55003,0.13101 13.88278,0.99817 0.52456,1.36696 0.53953,1.33785 -0.87904,1.70882 -1.16639,0.30502 -1.26207,0.86074 -1.26207,7.33051 0,5.5254 -0.18317,7.00047 -0.86929,7.00047 -1.29445,0 -2.30159,-1.50094 -2.7145,-4.04542 -0.33068,-2.03772 -0.56501,-2.26455 -2.33585,-2.26105 -1.08257,0.002 -2.78167,0.42809 -3.77579,0.94655 -0.99411,0.51847 -2.14669,0.94267 -2.56129,0.94267 -1.36692,0 -2.91004,-1.553 -3.21518,-3.23579 -0.26129,-1.44089 -0.0448,-1.70657 1.66989,-2.04951 1.08355,-0.21671 3.79837,-0.39402 6.03293,-0.39402 h 4.06283 l -0.19774,-2.05087 -0.19774,-2.05087 -7.73019,-0.17718 -7.73019,-0.17718 v 7.27634 c 0,5.96948 -0.166006,7.27633 -0.924346,7.27633 -0.5084,0 -1.21831,-0.54926 -1.57759,-1.22059 z m 64.816726,0.53901 c -0.71868,-0.41859 -1.10431,-1.41404 -1.10431,-2.8506 0,-3.90328 -4.20729,-6.47225 -7.61391,-4.64908 -0.93748,0.50172 -1.22059,1.33224 -1.22059,3.5807 v 2.92745 l -1.57759,-1.48207 c -1.96879,-1.84958 -2.17299,-5.57592 -0.39379,-7.18608 1.79083,-1.62067 5.22284,-1.95736 7.57156,-0.74279 2.43684,1.26014 3.23432,0.87207 3.23432,-1.57391 v -1.85586 h -5.91758 c -4.1806,0 -6.12387,-0.24858 -6.6204,-0.84686 -0.38655,-0.46577 -0.51597,-1.0337 -0.28761,-1.26207 0.77922,-0.77922 16.93783,-0.46781 17.74767,0.34203 1.03061,1.03061 0.95172,1.7669 -0.18931,1.7669 -0.78651,0 -0.94655,1.22701 -0.94655,7.25691 0,7.54803 -0.19424,8.02426 -2.68191,6.57533 z m 19.08885,-0.58049 c -0.70115,-0.70115 -1.26207,-2.10345 -1.26207,-3.15518 0,-1.75245 -0.16859,-1.89311 -2.26898,-1.89311 -1.24794,0 -3.02273,0.53259 -3.94398,1.18353 -1.93149,1.36475 -4.02473,0.91102 -5.10445,-1.10645 -1.52819,-2.85545 -1.04124,-3.17341 5.15551,-3.36633 l 5.8278,-0.18144 0.38323,-2.36639 0.38323,-2.36638 h -5.51248 c -4.14704,0 -5.59659,-0.21918 -5.85203,-0.88486 -0.18675,-0.48667 -0.1698,-1.05461 0.0377,-1.26207 0.20747,-0.20747 3.74639,-0.37722 7.86428,-0.37722 6.21577,0 7.55151,0.16793 7.86657,0.98898 0.20873,0.54393 0.0578,1.31064 -0.33532,1.70379 -0.44417,0.44416 -0.71484,3.29536 -0.71484,7.53001 0,4.12277 -0.2493,6.81519 -0.63103,6.81519 -0.34707,0 -1.19897,-0.56793 -1.89311,-1.26207 z M 96.674274,186.62155 c -1.17674,-1.30029 -1.06321,-1.87663 0.41896,-2.12689 0.46564,-0.0786 2.55041,-0.80758 4.632826,-1.61992 2.08242,-0.81233 4.49613,-1.43746 5.36381,-1.38918 1.90659,0.10609 12.41592,4.68226 11.47401,4.99623 -0.36545,0.12181 -2.63027,-0.36397 -5.03295,-1.07951 -2.40268,-0.71555 -5.04781,-1.29673 -5.87806,-1.2915 -1.93385,0.0122 -5.51005,1.25864 -7.668216,2.67273 -2.07634,1.36047 -1.92594,1.36784 -3.31038,-0.16196 z m -35.17674,-0.24353 c -0.60738,-0.46106 -1.10432,-1.16194 -1.10432,-1.55751 0,-0.39558 0.49694,-0.72029 1.10432,-0.72159 0.60737,-0.001 2.09819,-0.61067 3.31293,-1.35416 3.48616,-2.13371 8.97874,-2.11472 14.61611,0.0506 2.51345,0.9654 4.67074,2.05778 4.79399,2.42752 0.25094,0.75282 -0.74782,0.5773 -6.59214,-1.15851 -4.32452,-1.28441 -5.35882,-1.14053 -11.00626,1.53114 -4.05365,1.91769 -3.70037,1.86374 -5.12463,0.78257 z m -6.78364,-70.08204 V 57.54459 c -13.575077,0.150424 -26.529469,0.332122 -40.354262,0.442404 l 0.122512,58.435696 -0.16098,59.47513 h 20.19636 20.19637 z m -33.4449,46.03457 v -2.83966 h 5.55312 c 6.20697,0 7.0676,-0.438 7.0676,-3.59691 v -2.08242 h -6.31036 -6.31036 v -7.57243 -7.57243 h 2.50046 2.50047 l 0.18144,5.83708 0.18143,5.83709 h 3.4707 3.4707 l 0.18144,-5.83709 0.18144,-5.83708 h 7.23323 7.23323 v 2.83966 2.83967 h -5.99484 -5.99484 v 3.15518 3.15517 h 5.99484 5.99484 v 7.25692 7.25691 h -2.81509 -2.81509 l -0.18233,-5.52156 -0.18233,-5.52157 h -3.15518 -3.15518 l -0.18232,5.52157 -0.18233,5.52156 h -7.23235 -7.23234 z m 0.78879,-33.53691 c -0.43905,-0.18295 -0.78879,-1.41441 -0.78879,-2.77739 v -2.44871 l 6.1526,-0.18061 6.1526,-0.18061 v -3.15518 -3.15518 l -6.1526,-0.1806 -6.1526,-0.18061 v -7.54958 -7.54958 h 2.50129 2.50129 l 0.18061,6.1526 0.18061,6.1526 3.62846,0.18924 3.62846,0.18926 v -6.34186 -6.34184 h 7.25691 7.25691 v 2.83966 2.83966 h -5.99484 -5.99484 v 3.4707 3.47069 h 6.01487 6.01486 l -0.17778,7.41467 -0.17779,7.41468 h -2.52414 -2.52414 l -0.31552,-5.99484 -0.31552,-5.99485 h -2.83966 -2.83966 l -0.31552,5.99485 -0.31552,5.99484 -6.62587,0.11833 c -3.64424,0.0651 -6.98084,-0.0296 -7.41468,-0.21034 z m -0.3681,-37.244282 c -0.23138,-0.231376 -0.42069,-1.640927 -0.42069,-3.132324 v -2.711643 l 6.1526,-0.180609 6.1526,-0.180609 V 82.504512 79.66485 l -4.73277,-0.159671 c -8.07988,-0.272594 -7.57243,0.224958 -7.57243,-7.424782 v -6.613854 h 2.83966 2.83966 v 5.679323 5.679323 h 3.4707 3.4707 v -5.679323 -5.679323 h 7.25691 7.25691 v 2.524144 2.524143 h -5.99484 -5.99484 v 3.131499 3.131501 l 5.83708,0.181435 5.83708,0.181442 0.17779,7.414672 0.17778,7.414671 h -2.83761 -2.83761 l -0.17983,-6.468118 -0.17984,-6.468117 h -2.83966 -2.83966 l -0.17984,6.468117 -0.17983,6.468118 h -7.12966 c -3.92132,0 -7.31898,-0.189311 -7.55036,-0.420692 z m 44.36357,66.555432 c 0.0561,-18.39139 -0.47286,-23.94201 -2.45384,-25.74845 -2.99554,-2.73162 -5.0412,-11.79537 -3.10024,-13.73632 0.56196,-0.56196 0.56196,-1.32118 0,-3.19684 -1.57189,-5.24649 -0.4846,-11.1108 2.71041,-14.61863 0.79029,-0.867667 1.67806,-2.713447 1.97281,-4.101727 0.29476,-1.38828 0.54463,-10.901149 0.55527,-21.139706 l 0.0194,-17.9541 -4.57501,-0.153054 -4.57501,0.130438 v 58.777729 59.53369 h 4.69599 4.69598 l 0.0543,-17.79303 z m 78.898766,13.37096 v -4.42206 l -38.96647,0.16257 -38.966456,0.16258 -0.11776,4.25949 -0.11775,4.25949 h 39.084216 39.08422 z m 10.09657,-55.1468 V 57.327044 l -4.27906,0.04076 -4.33441,0.05222 -0.0717,20.451033 -0.16619,20.9235 1.44354,1.793783 c 0.79394,0.98659 2.10911,3.16985 2.92257,4.85169 1.23226,2.5477 1.40453,3.60056 1.0325,6.31036 -0.24558,1.78885 -0.4064,4.24634 -0.35737,5.46108 0.42031,10.41308 0.42382,10.38309 -1.55367,13.29948 -1.04121,1.53556 -2.14413,3.9278 -2.45093,5.31608 -0.3068,1.38828 -0.67371,10.97214 -0.81535,21.29746 l -0.25752,18.77332 h 4.4438 4.4438 z m 43.54149,0.28009 -0.13363,-59.088323 -2.71905,-0.109099 c -2.46433,0.193902 -9.69239,0.04332 -19.93145,0.0141 l -18.54873,-0.05293 -0.16098,59.049912 -0.16098,59.47513 h 20.82741 20.82741 z m -34.70699,41.97158 v -7.2932 h 6.31036 6.31036 V 148.485 c 0,-1.54133 -0.31619,-2.99783 -0.70264,-3.23668 -0.38645,-0.23884 -3.22611,-0.38319 -6.31036,-0.32079 l -5.60772,0.11346 v -2.87162 -2.87163 h 7.57243 7.57244 v 6.02941 6.02942 l 2.99742,-0.19233 2.99742,-0.19234 0.18145,-5.83708 0.18143,-5.83708 h 2.83601 2.83601 l -0.17778,7.35542 -0.17779,7.35542 -5.04829,-0.10967 c -2.77656,-0.0603 -5.42289,0.13722 -5.88075,0.43899 -0.51938,0.34232 -0.75671,1.47383 -0.63103,3.00859 l 0.20142,2.45991 5.83708,0.18145 5.83709,0.18143 v 2.83601 2.83601 l -7.41468,-0.17778 -7.41468,-0.17779 -0.31552,-5.67933 -0.31551,-5.67932 -2.39471,-0.0197 c -1.31709,-0.0109 -2.65345,0.14017 -2.96968,0.33562 -0.31623,0.19543 -0.65844,2.76002 -0.76047,5.69905 l -0.1855,5.34373 -2.6819,0.19404 -2.68191,0.19404 z m 0.4207,-29.80015 c -0.23139,-0.23137 -0.4207,-3.48671 -0.4207,-7.23405 v -6.81338 l 6.1526,-0.18061 6.1526,-0.18061 v -3.15518 -3.15518 l -6.1526,-0.18061 -6.1526,-0.18061 v -2.81681 -2.81681 h 7.57243 7.57244 v 6.34493 6.34494 l 2.99742,-0.19234 2.99742,-0.19233 0.18061,-6.1526 0.18061,-6.1526 h 3.13233 3.13233 v 7.57243 7.57243 h -6.31036 -6.31036 v 3.1315 3.1315 l 5.83709,0.18144 5.83708,0.18144 0.19404,2.6819 0.19404,2.6819 h -7.29319 -7.29321 v -5.99484 -5.99484 h -3.4707 -3.47069 v 5.99484 5.99484 h -2.41897 c -1.33044,0 -2.60829,-0.18931 -2.83966,-0.42069 z m -0.4207,-44.044483 v -7.234063 l 6.1526,-0.180608 6.1526,-0.180609 v -3.155179 -3.15518 l -6.1526,-0.18061 -6.1526,-0.18061 v -2.501292 -2.501293 h 7.86427 7.86428 l 0.18144,5.837082 0.18144,5.837082 h 2.83966 2.83966 l 0.18144,-5.837082 0.18144,-5.837082 h 2.81598 2.81598 v 6.941395 6.941395 h -6.02782 -6.02782 l 0.19074,3.312938 0.19074,3.312938 5.52156,0.182326 5.52157,0.182331 v 2.815089 2.815095 h -7.25692 -7.25692 v -6.310359 -6.310358 h -3.15518 -3.15518 v 6.310358 6.310359 h -3.15518 -3.15518 z m -45.43458,73.538453 c 2.90429,-2.03552 3.35413,-3.91035 1.85373,-7.72585 -1.88949,-4.80495 -2.76064,-5.57153 -6.33154,-5.57153 -1.66108,0 -3.20646,0.30149 -3.43419,0.66996 -0.22774,0.36848 -1.10367,0.93215 -1.94652,1.25261 -2.1752,0.827 -2.3978,1.93796 -1.41842,7.07912 0.71546,3.75575 1.13734,4.67819 2.44244,5.34038 1.99228,1.01087 6.69508,0.45476 8.8345,-1.04469 z m -14.60755,0.0481 c 1.28288,-1.28287 2.26262,-6.7544 1.62243,-9.06067 -0.22063,-0.79483 -1.35983,-2.2497 -2.53154,-3.23305 -1.93552,-1.62438 -2.3246,-1.72382 -4.253676,-1.08716 -1.16781,0.38541 -2.52159,0.56085 -3.0084,0.38986 -0.58137,-0.2042 -1.35539,0.71024 -2.25557,2.66475 -2.46286,5.34749 -2.42622,7.9233 0.14934,10.49886 1.50224,1.50223 8.723866,1.38097 10.277416,-0.17259 z m -14.515516,-5.04185 c 0.92016,-0.98613 2.21384,-3.30057 2.87483,-5.14322 1.05645,-2.94498 1.088,-3.43419 0.26084,-4.04413 -0.51754,-0.38162 -1.28133,-1.33279 -1.6973,-2.1137 -0.47895,-0.89912 -1.34196,-1.41983 -2.35319,-1.41983 -0.87828,0 -2.15889,-0.30079 -2.84582,-0.66842 -1.0176,-0.5446 -1.64435,-0.34005 -3.38365,1.10432 -1.17409,0.975 -2.15521,2.06457 -2.18026,2.42128 -0.025,0.35671 -0.6135,1.13483 -1.30764,1.72917 -1.29272,1.10687 -1.66363,3.89994 -0.71629,5.39389 0.28956,0.45662 1.2081,1.2007 2.04121,1.65351 0.83311,0.4528 2.36664,1.28431 3.40785,1.84779 2.68741,1.45437 3.98919,1.28652 5.89942,-0.76066 z m 41.017326,0.50677 c 3.49045,-1.81933 4.76509,-3.45069 4.76509,-6.09868 0,-1.97493 -0.47836,-2.69824 -3.63921,-5.50283 -3.2553,-2.88837 -3.89564,-3.20456 -6.06993,-2.9972 -1.9935,0.19011 -2.56906,0.56579 -3.19984,2.08864 -0.42302,1.02125 -1.3404,2.25697 -2.03863,2.74603 l -1.2695,0.88919 1.28103,2.95936 c 1.69339,3.91197 4.55112,7.17097 6.30301,7.18803 0.77022,0.008 2.51081,-0.56514 3.86798,-1.27254 z m -20.72876,-8.81038 c 1.26415,-1.26415 1.5772,-3.49254 0.86434,-6.1526 -0.33242,-1.24038 -0.7899,-1.4186 -3.61984,-1.41017 -3.97064,0.0119 -4.6544,0.41327 -4.82053,2.83 -0.23513,3.42061 -0.0161,4.05074 1.73895,5.00287 2.40608,1.30533 4.35168,1.2153 5.83708,-0.2701 z m -30.509896,-2.68918 3.45506,-3.32021 -0.52674,-3.14188 c -0.4026,-2.40142 -0.82097,-3.19533 -1.7752,-3.36866 -0.68665,-0.12473 -1.87683,-0.80594 -2.64482,-1.51381 -1.31675,-1.21364 -1.48644,-1.228 -2.97636,-0.25178 -0.86899,0.56939 -2.15719,1.12334 -2.86265,1.231 -2.39178,0.36501 -4.77924,2.6674 -4.93891,4.76293 -0.27916,3.66363 4.1581,8.82119 7.65476,8.89736 0.6379,0.0139 2.71459,-1.46883 4.61486,-3.29495 z m 63.589966,0.57618 c 1.09604,-1.16214 2.37759,-3.27891 2.84789,-4.70392 0.75459,-2.28641 0.73137,-2.77971 -0.1975,-4.19736 -0.57892,-0.88353 -1.40099,-1.61531 -1.82683,-1.62617 -0.42583,-0.0109 -2.19408,-0.71817 -3.92943,-1.57182 -3.87089,-1.90416 -4.11294,-1.90925 -6.83201,-0.14379 -1.46673,0.95232 -2.29059,2.04316 -2.50211,3.31293 -0.17344,1.04121 -0.51284,2.50448 -0.75424,3.2517 -0.36607,1.13314 0.22514,1.88879 3.56266,4.55364 4.91791,3.92672 6.78353,4.14459 9.63157,1.12479 z m -44.239466,0.75646 c 1.898076,-0.99907 2.305376,-1.76232 2.306786,-4.32278 0.001,-2.10193 -0.15385,-2.25768 -3.208836,-3.22406 l -3.21007,-1.01544 -1.19638,1.962 c -1.59038,2.60809 -1.51154,3.91754 0.34781,5.77688 1.71347,1.71347 2.89659,1.90986 4.96069,0.8234 z m 21.819276,-2.08281 c 0.79452,-1.66425 0.76158,-2.09858 -0.31053,-4.09428 -1.39345,-2.59388 -2.3394,-2.89932 -5.95991,-1.92442 -2.51991,0.67854 -2.63088,0.80907 -2.31153,2.71902 0.1845,1.10345 0.64325,2.80277 1.01945,3.77629 0.63356,1.63954 0.90475,1.75583 3.67885,1.57759 2.60895,-0.16764 3.1094,-0.43235 3.88367,-2.0542 z m -28.897576,-4.19982 c 1.00693,-1.07791 1.83077,-2.33508 1.83077,-2.79371 0,-0.8855 -4.29876,-4.71198 -5.29353,-4.71198 -1.00083,0 -4.17201,3.94665 -4.17201,5.19221 0,1.44101 3.03642,4.22602 4.63735,4.25339 0.64166,0.011 1.9905,-0.86199 2.99742,-1.93991 z m 36.513146,-0.68328 c 2.06886,-2.22066 1.47033,-4.44494 -1.82809,-6.79362 l -1.85524,-1.32105 -2.24777,1.97357 c -2.42826,2.13204 -2.63218,2.83289 -1.52882,5.2545 1.1682,2.56392 5.42584,3.06992 7.45992,0.8866 z m -15.74155,-2.88808 c 3.63812,-2.61745 6.92173,-7.46026 7.67141,-11.31411 0.32442,-1.66777 0.41078,-4.80047 0.19191,-6.96155 -0.37733,-3.72571 -0.56149,-4.07628 -3.55536,-6.76803 -6.16501,-5.54286 -13.70778,-5.51513 -18.931016,0.0696 -4.06187,4.34298 -3.74841,12.46103 0.61312,15.87908 3.426956,2.68565 4.796506,3.26754 7.690436,3.26754 4.37203,0 8.83389,-4.34402 8.83389,-8.6006 0,-3.49781 -1.38462,-5.85996 -4.24722,-7.24572 -2.99457,-1.44965 -4.81055,-1.28857 -7.18939,0.6377 -1.22577,0.99256 -1.49963,1.80491 -1.49963,4.44827 0,3.74988 0.67747,4.42607 4.4488,4.44033 2.72892,0.0103 4.07019,-0.84009 4.07019,-2.58064 0,-0.88388 -0.43348,-1.01768 -2.42962,-0.74994 -1.84305,0.24721 -2.52213,0.0848 -2.81285,-0.67282 -0.49492,-1.28975 1.15663,-2.93402 2.92116,-2.90826 3.68998,0.0539 4.96414,4.77313 2.03233,7.52742 -1.31266,1.23319 -2.01244,1.40512 -4.55327,1.11873 -4.87745,-0.54976 -7.439026,-4.91185 -5.410786,-9.214 1.966846,-4.17193 7.130456,-5.67808 11.476196,-3.34744 3.86952,2.07525 5.52254,7.58926 3.7766,12.59767 -1.80361,5.17383 -10.40965,7.60783 -15.475226,4.37679 -3.36486,-2.14625 -4.93777,-4.0393 -6.22181,-7.48814 -3.07255,-8.25268 4.18758,-17.3732 13.656166,-17.15553 9.88528,0.22725 16.3112,9.09621 14.13755,19.51241 -0.88722,4.25156 -1.04484,4.59333 -3.68293,7.98568 -1.02153,1.31358 -1.49222,2.36638 -1.05799,2.36638 1.56705,0 4.90764,-3.19052 6.25519,-5.97419 0.7597,-1.56932 1.60848,-2.99374 1.88617,-3.16536 0.80464,-0.4973 1.49354,-4.76515 1.36076,-8.43009 -0.22609,-6.24032 -4.33459,-12.9191 -10.28409,-16.717777 -0.8095,-0.51685 -3.48281,-1.24381 -5.94068,-1.61545 -6.30203,-0.9529 -11.928816,0.26065 -15.758356,3.398677 -5.7759,4.73291 -7.82481,9.02442 -7.9653,16.68359 -0.14268,7.77926 3.22633,13.36162 10.1047,16.74319 4.453676,2.18953 4.540036,2.20927 8.947556,2.0454 3.49263,-0.12985 4.53745,-0.45932 6.94139,-2.18884 z m -25.975636,-4.18606 1.48419,-1.48324 -1.48419,-2.76097 c -0.81629,-1.51854 -1.50981,-2.83394 -1.54115,-2.92311 -0.0313,-0.0892 -0.93455,0.0134 -2.00716,0.22789 -4.2549,0.85098 -5.91824,4.86612 -3.217,7.76555 1.65362,1.77496 4.51181,1.42594 6.76531,-0.82612 z m -13.0446,0.13924 c 2.37392,-1.07287 3.04144,-1.69799 3.04144,-2.84822 0,-0.81052 0.31078,-1.9713 0.69062,-2.57953 0.54908,-0.8792 0.33209,-1.65349 -1.05864,-3.77765 l -1.74927,-2.67181 h -4.96488 c -4.47344,0 -5.1233,0.15842 -6.56538,1.6005 -1.39838,1.39838 -1.54489,1.9363 -1.16011,4.25949 1.19502,7.21517 4.91086,9.11544 11.76622,6.0172 z m 76.179256,-0.87013 c 1.78238,-3.02089 1.79017,-7.72061 0.0165,-9.97541 -1.17668,-1.4959 -1.72528,-1.66269 -5.46898,-1.66269 -5.03045,0 -4.84182,-0.51174 0.46513,-1.26188 2.15501,-0.30461 4.45674,-1.0412 5.11496,-1.63688 2.50408,-2.26617 0.53941,-10.79155 -2.84194,-12.3322 -1.33919,-0.61017 -2.27785,-0.4104 -6.22776,1.32546 -4.48444,1.97077 -4.67836,2.1466 -5.41818,4.91268 -0.69894,2.61326 -0.65287,2.99054 0.51729,4.23611 0.70651,0.75205 1.28456,1.81288 1.28456,2.3574 0,0.54452 0.56649,1.13819 1.25888,1.31925 0.49314,0.12896 0.71062,0.27627 0.58375,0.59992 -0.16859,0.43007 -0.86845,1.12036 -1.58999,1.9944 -2.19048,2.19048 -2.25064,2.3744 -1.82566,5.58148 0.2417,1.82399 0.62351,3.51058 0.84848,3.74796 0.96129,1.01437 6.92906,2.91516 9.33895,2.97454 2.36146,0.0582 2.75007,-0.15663 3.94397,-2.18014 z m -16.54302,0.24159 c 1.45294,-1.36498 1.95828,-4.45235 0.97756,-5.97236 -0.38807,-0.60146 -4.58481,-2.10583 -5.90747,-2.11759 -0.36374,-0.003 -3.07513,5.78655 -3.07513,6.5665 0,0.50364 4.58453,2.83518 5.63865,2.86762 0.49824,0.0153 1.56311,-0.58953 2.36639,-1.34417 z M 84.057064,117.527 v -3.78621 h -3.4707 -3.4707 l -0.57405,2.32334 c -0.45287,1.83288 -0.34531,2.67245 0.50951,3.97707 0.95284,1.45421 1.44081,1.6307 4.04475,1.46287 l 2.96119,-0.19085 z m 50.808826,2.19818 c 1.24354,-1.24354 1.30819,-2.50835 0.29188,-5.71044 -0.53404,-1.68262 -2.8004,-2.50987 -5.62179,-2.05202 l -2.25297,0.3656 v 3.72399 c 0,3.27212 0.17228,3.79324 1.41983,4.29469 2.3895,0.96046 4.82666,0.71457 6.16305,-0.62182 z m -60.957016,-3.52777 c 0.549,-0.21066 0.99817,-0.72505 0.99817,-1.14308 0,-0.41802 0.57831,-1.38079 1.28514,-2.13949 1.0068,-1.08067 1.14347,-1.64415 0.63104,-2.60165 -0.35976,-0.67221 -0.65411,-1.95538 -0.65411,-2.85149 0,-1.26299 -0.49653,-1.83978 -2.20863,-2.56563 -1.21474,-0.51499 -3.21214,-1.36229 -4.43866,-1.88289 -3.50394,-1.48727 -4.84296,-1.20791 -6.60446,1.3779 -2.10537,3.09059 -2.29295,9.33206 -0.31552,10.49841 2.31621,1.36616 9.10795,2.15179 11.30703,1.30792 z m 11.69625,-6.95409 c 1.74198,-3.93803 1.65267,-4.43552 -0.95054,-5.29465 -2.38034,-0.78559 -5.32347,-0.37574 -6.1031,0.84988 -1.11242,1.74879 -0.49637,4.72994 1.24609,6.02995 2.87798,2.14722 4.3321,1.75031 5.80755,-1.58518 z m 45.937386,1.03368 c 1.6956,-1.03382 2.05086,-1.6396 2.05086,-3.49702 0,-2.49759 -2.27923,-5.36292 -4.23081,-5.31875 -0.62315,0.0141 -2.01276,0.79501 -3.08804,1.73535 l -1.95503,1.7097 1.5235,3.31294 c 1.69538,3.68671 2.5323,3.98887 5.69952,2.05778 z m -53.425726,-6.69853 c 0.46207,-0.55676 1.49072,-1.25964 2.28589,-1.56197 1.06915,-0.40649 1.44576,-1.04911 1.44576,-2.466967 0,-1.0545 0.34541,-2.47036 0.76756,-3.14634 0.67982,-1.08856 0.35832,-1.62862 -2.8123,-4.724208 -2.94536,-2.875668 -3.96666,-3.49515 -5.76221,-3.49515 -1.80531,0 -2.62773,0.505958 -4.76013,2.928505 -2.14992,2.442431 -2.57778,3.372262 -2.57778,5.602063 0,2.98487 0.16321,3.17564 5.04829,5.900777 3.96046,2.20934 5.17788,2.39359 6.36492,0.96329 z m 59.882296,-0.24523 c 4.5711,-1.80176 7.54149,-4.662387 7.24813,-6.980327 -0.32153,-2.54056 -1.15109,-3.895495 -3.81945,-6.238342 -2.98367,-2.619701 -4.52171,-2.265273 -8.92906,2.057575 -2.7707,2.717577 -3.32258,3.630147 -3.32258,5.494067 0,1.81315 0.35659,2.445827 1.88857,3.350787 1.0387,0.61358 2.18456,1.66869 2.54634,2.34468 0.80095,1.4966 0.51429,1.49846 4.38805,-0.0285 z m -47.763126,-1.58075 c 1.28705,-1.21399 2.34009,-2.394037 2.34009,-2.622337 0,-0.22831 -0.72436,-1.36479 -1.6097,-2.52553 -1.95621,-2.564712 -4.11182,-2.756635 -6.30693,-0.56152 -2.28236,2.28236 -2.08059,4.928047 0.50196,6.581957 1.12798,0.72238 2.20468,1.31819 2.39267,1.32404 0.188,0.006 1.39486,-0.98263 2.68191,-2.19661 z m 37.679466,-2.212577 c 0.80768,-1.50915 -0.1374,-4.10536 -1.82279,-5.007352 -2.38334,-1.275526 -4.93602,-0.807057 -6.33908,1.163362 -0.71777,1.00801 -1.30504,2.11084 -1.30504,2.45071 0,0.33988 1.14829,1.65537 2.55176,2.923307 l 2.55176,2.30537 1.86678,-1.32927 c 1.02672,-0.73109 2.1502,-1.85885 2.49661,-2.506127 z m -30.133326,-2.42556 c 3.268516,-1.54532 3.669846,-2.618815 1.92968,-5.16165 -1.41028,-2.060793 -2.09036,-2.485575 -3.9979,-2.497135 -2.37104,-0.01439 -4.40029,1.672043 -4.39754,3.654575 0.002,1.81781 2.25758,6.05089 3.01394,5.65763 0.24992,-0.12994 1.80324,-0.87398 3.45182,-1.65342 z m 20.620616,-1.12767 c 2.54441,-3.234697 1.20896,-6.718318 -2.88973,-7.538059 -2.35059,-0.470116 -3.96081,0.926828 -4.11104,3.566501 -0.0579,1.016416 -0.12883,2.307711 -0.15776,2.869538 -0.0319,0.61887 0.81796,1.33537 2.15604,1.81782 3.22322,1.16212 3.56363,1.11341 5.00249,-0.7158 z m -8.66765,-2.754561 c 0.26983,-1.214744 0.35659,-2.811599 0.1928,-3.548574 -0.39806,-1.791075 -3.70519,-3.146767 -5.82914,-2.389543 -2.31859,0.826619 -2.92342,2.169817 -2.43716,5.41242 l 0.42615,2.841798 3.57838,-0.0538 c 3.56116,-0.0534 3.58074,-0.0644 4.06897,-2.262362 z m 21.91169,-1.438825 c 4.54026,-4.128413 4.82564,-7.524466 0.90765,-10.801069 -2.63357,-2.202454 -7.97993,-3.430178 -9.4878,-2.178759 -1.18916,0.986922 -3.98705,7.192724 -3.98705,8.8434 0,2.150861 2.57793,4.898568 5.00376,5.333301 1.23923,0.222081 2.6791,0.64218 3.1997,0.933561 1.2342,0.690763 1.29231,0.662386 4.36374,-2.130434 z M 88.947594,93.23907 c 0.60737,-0.0038 1.10431,-0.412288 1.10431,-0.907701 0,-0.495414 0.70991,-1.45917 1.57759,-2.141686 1.96417,-1.545015 1.973,-2.536423 0.056,-6.286316 -1.70933,-3.343619 -3.82537,-5.817861 -4.97107,-5.812585 -2.27631,0.01047 -5.49178,1.525491 -7.87235,3.709147 -2.49557,2.289158 -2.64182,2.598953 -2.01496,4.268345 0.37176,0.990026 2.0086,3.169549 3.63744,4.84339 2.68877,2.763073 3.16491,3.010698 5.17014,2.68885 1.21474,-0.194977 2.70556,-0.357627 3.31294,-0.361444 z M 100.7816,87.865793 c 0.43321,-0.521987 1.67484,-1.183962 2.75917,-1.471058 l 1.97151,-0.521981 -0.19321,-4.681541 c -0.21232,-5.144754 -1.42931,-7.684396 -3.8545,-8.043666 -0.76832,-0.11382 -3.354496,0.387644 -5.747056,1.114363 -4.03695,1.226184 -4.37677,1.468236 -4.72025,3.362126 -0.25453,1.403405 0.0328,2.821583 0.91985,4.540625 0.70948,1.374895 1.28997,2.830947 1.28997,3.235675 0,1.400824 2.51115,2.71712 6.39085,3.349942 0.2178,0.03553 0.750446,-0.362492 1.183666,-0.884485 z m 14.97696,-0.388605 c 1.75873,0.06336 2.16848,-0.227147 2.94638,-2.08893 0.49696,-1.189389 1.09297,-3.678485 1.32447,-5.531327 0.48954,-3.918202 -0.20379,-4.855975 -4.49377,-6.078053 -6.61699,-1.884971 -8.45275,-0.429493 -8.93495,7.084051 l -0.2948,4.593663 2.44286,1.337355 c 1.39119,0.761622 2.98618,1.180718 3.70492,0.973505 0.69414,-0.20012 2.18134,-0.330738 3.30489,-0.290264 z m 82.68301,-50.880537 0.16701,-19.088835 h -92.1405 -92.140476 v 19.248705 19.248704 l 91.973466,-0.159869 91.97349,-0.159869 z M 79.786254,48.049157 c -0.20868,-0.208679 -1.88881,-0.563637 -3.73362,-0.788795 -3.07113,-0.374827 -3.37107,-0.555837 -3.55389,-2.144726 -0.1848,-1.606046 -0.032,-1.735349 2.05087,-1.735349 2.00846,0 2.25054,-0.178175 2.25054,-1.656469 0,-1.497825 -0.17833,-1.620803 -1.86203,-1.284063 -4.46353,0.892705 -7.60351,-2.217445 -7.60351,-7.531269 0,-1.488008 -0.28397,-2.880969 -0.63104,-3.09547 -2.1095,-1.303745 0.72508,-1.57759 16.32967,-1.57759 13.93879,0 17.094146,0.160807 17.709736,0.902546 0.5991,0.721868 0.48824,1.042126 -0.55376,1.599792 -1.200666,0.642578 -1.304386,1.276853 -1.322756,8.089715 l -0.0199,7.39247 -1.60175,-1.8218 c -1.5381,-1.749426 -1.6979,-1.790063 -4.02233,-1.022931 -2.94103,0.970625 -6.55735,0.404476 -8.25403,-1.2922 -1.65312,-1.653127 -1.59603,-5.009897 0.11647,-6.848054 1.21444,-1.303546 1.80482,-1.420929 6.1526,-1.223301 4.76748,0.216705 4.80926,0.204899 4.80926,-1.358986 v -1.57759 h -7.88795 -7.88795 l -0.37558,5.994841 c -0.20657,3.297163 -0.58829,6.609452 -0.84827,7.360643 -0.35863,1.036277 -0.15383,1.536441 0.84887,2.073069 0.72684,0.388997 1.32154,0.981242 1.32154,1.316101 0,0.678725 -0.84619,0.814372 -1.43115,0.229416 z m 13.65928,-7.517 c 1.25713,-0.525262 2.28569,-1.344805 2.28569,-1.821207 0,-2.096828 -7.63426,-3.850915 -9.33933,-2.14585 -0.9956,0.995606 -0.97387,4.09846 0.0316,4.504156 1.58548,0.639755 4.79257,0.394453 7.02209,-0.537099 z m -17.63701,-2.560749 c 0.59553,-0.595534 0.99163,-2.080925 0.99163,-3.718702 0,-2.925818 -0.60776,-3.501105 -3.68007,-3.483474 -2.7544,0.01581 -3.42791,0.801431 -3.03216,3.536913 0.19481,1.346546 0.36493,2.782401 0.37803,3.19079 0.048,1.496655 3.97191,1.845134 5.34257,0.474473 z m 66.282326,8.434403 c -0.78401,-0.616705 -2.66172,-1.675599 -4.17268,-2.353097 -4.07826,-1.828642 -5.74463,-3.382564 -5.74463,-5.356978 0,-2.271053 0.6496,-2.822885 3.98923,-3.388822 2.55899,-0.433651 2.81086,-0.642394 2.98971,-2.477833 l 0.19531,-2.004288 -3.65987,-0.190371 c -2.89264,-0.150463 -3.70393,-0.421869 -3.87004,-1.294683 -0.19025,-0.99974 0.47503,-1.104313 7.02551,-1.104313 5.62537,0 7.31124,0.196926 7.57522,0.88486 0.44248,1.15307 -0.0911,1.639283 -1.799,1.639283 -1.2161,0 -1.42827,0.427644 -1.74771,3.522673 -0.19996,1.93747 -0.94027,4.688291 -1.64513,6.112934 -1.47205,2.975286 -1.23647,3.480754 2.44421,5.244273 1.39075,0.666344 2.53189,1.36366 2.53587,1.54959 0.0169,0.786178 -2.80297,0.2496 -4.116,-0.783228 z m 28.52982,-1.008992 c -0.84431,-0.932946 -1.05825,-2.466968 -1.05825,-7.587784 v -6.41843 h -2.17013 -2.17013 l 0.11926,7.257153 c 0.12632,7.686821 -0.1292,8.27323 -2.60141,5.970019 -0.95277,-0.88764 -1.38106,-2.030401 -1.38106,-3.684925 0,-1.9576 -0.29533,-2.532832 -1.60728,-3.130597 -5.31301,-2.420769 -9.53884,1.458497 -5.85749,5.377114 0.75336,0.801907 1.20569,1.622055 1.0052,1.82255 -0.57753,0.577528 -4.09294,-1.473811 -5.17629,-3.020509 -3.50302,-5.001265 3.36506,-10.233207 9.34161,-7.11622 0.99411,0.518467 1.917,0.942667 2.05087,0.942667 0.13386,0 0.24338,-1.135865 0.24338,-2.524144 v -2.524144 h -5.86863 c -5.50506,0 -7.38312,-0.513658 -7.38312,-2.019314 0,-0.277656 2.98164,-0.504829 6.62587,-0.504829 5.46898,0 6.62588,-0.165272 6.62588,-0.946554 0,-0.765352 -1.00265,-0.946554 -5.2376,-0.946554 -5.36727,0 -6.75208,-0.532026 -6.75208,-2.594058 0,-1.561846 4.85758,-3.716301 8.37903,-3.716301 4.28277,0 9.41968,2.153749 12.57488,5.272269 1.49046,1.47313 3.49084,3.16779 4.44528,3.765909 2.10569,1.319575 2.21522,2.164539 0.31552,2.434338 -1.356,0.192582 -1.43402,0.525629 -1.73535,7.407826 -0.32589,7.443124 -0.81286,8.600681 -2.72796,6.484518 z m -2.13121,-18.029598 c -0.79773,-1.372465 -4.26759,-4.082518 -6.13728,-4.793373 -2.15391,-0.818912 -6.10072,-0.834953 -8.20906,-0.03336 -2.89737,1.101578 -1.78109,1.9087 2.64082,1.909436 3.86383,6.31e-4 4.43534,0.173142 6.1526,1.857038 1.2934,1.268277 2.55272,1.867757 3.97533,1.892399 1.59679,0.02766 1.96457,-0.16634 1.57759,-0.832135 z M 41.244424,44.750429 c -0.82024,-0.906361 -1.04435,-2.463637 -1.04435,-7.256912 0,-3.356601 -0.26369,-6.102912 -0.58597,-6.102912 -0.94028,0 -2.61463,-1.940137 -2.22225,-2.575017 0.1972,-0.319089 0.95374,-0.580162 1.68119,-0.580162 1.27698,0 1.28371,-0.04301 0.19499,-1.246027 -1.09408,-1.208944 -1.07351,-1.266942 0.69099,-1.948824 3.53619,-1.366533 9.40585,-3.099332 10.52586,-3.107367 0.62414,-0.0045 2.26911,0.539902 3.6555,1.209732 1.38639,0.66983 3.35718,1.401593 4.37954,1.62614 1.02235,0.224546 2.01818,0.666109 2.21294,0.98125 0.42032,0.680083 -2.75194,0.148579 -6.33449,-1.061328 -3.212,-1.084766 -4.21159,-1.079722 -6.76222,0.03412 -1.13976,0.497722 -2.99517,1.276956 -4.12315,1.731634 -1.12797,0.454676 -2.05086,1.041331 -2.05086,1.303677 0,0.262346 5.14688,0.476993 11.43752,0.476993 h 11.43753 l -0.3944,1.971987 c -0.21692,1.084593 -0.3944,5.060119 -0.3944,8.834502 0,7.376276 -0.49731,8.322285 -2.77827,5.284926 -1.31625,-1.752735 -2.40239,-1.992231 -3.4284,-0.755967 -0.37504,0.451892 -1.83323,0.889557 -3.24042,0.972587 -3.63206,0.214307 -6.95984,-2.338872 -6.95984,-5.339804 0,-2.404172 1.62775,-4.408847 4.07954,-5.024206 1.76811,-0.443769 5.74044,-0.09805 7.43686,0.647238 0.93729,0.411781 1.10432,0.140903 1.10432,-1.79098 v -2.27614 h -7.88795 -7.88795 v 6.574267 c 0,8.56918 -0.49269,9.901893 -2.74186,7.416593 z m 16.28772,-3.695643 c 1.4446,-0.688878 2.23004,-1.503823 2.23004,-2.313798 0,-0.687703 -0.16515,-1.085226 -0.36699,-0.883383 -0.20184,0.201842 -1.32858,-0.0348 -2.50387,-0.525863 -4.12334,-1.72284 -7.22572,-0.886972 -7.22572,1.946812 0,2.929511 3.69739,3.764365 7.86654,1.776232 z m 67.251316,3.468584 c -1.11359,-1.19529 -1.28666,-2.21388 -1.28666,-7.57243 v -6.191371 h -1.89311 -1.89311 v 7.256913 c 0,3.991302 -0.26074,7.256913 -0.57942,7.256913 -1.63299,0 -2.57576,-0.921646 -2.57576,-2.518059 0,-1.283453 -0.37971,-1.853754 -1.41983,-2.132495 -2.23296,-0.59841 -6.03893,-0.461129 -6.46811,0.233303 -0.65889,1.066099 -3.40129,0.700446 -4.73277,-0.631036 -1.66798,-1.66798 -1.59178,-2.430029 0.31551,-3.15518 1.26634,-0.481458 1.57759,-1.033791 1.57759,-2.79946 0,-2.055098 -1.8644,-4.77297 -3.27416,-4.77297 -0.28163,0 -0.51205,-0.283966 -0.51205,-0.631036 0,-0.34707 1.56181,-0.631036 3.4707,-0.631036 h 3.47069 v 4.417251 4.417251 h 3.78622 3.78621 v -4.417251 -4.417251 h 5.86864 c 3.72311,0 6.14547,0.276842 6.62587,0.757243 1.07299,1.072986 0.94408,1.570845 -0.50482,1.949742 -1.17053,0.306098 -1.26208,0.860743 -1.26208,7.646029 0,4.258939 -0.25341,7.315991 -0.60645,7.315991 -0.33355,0 -1.18545,-0.621478 -1.8931,-1.381061 z m 60.01598,-4.515681 c -1.59411,-1.696859 -1.28886,-3.269304 0.74029,-3.813515 1.96291,-0.52644 2.12241,-0.496494 3.22422,0.605311 1.29896,1.298964 1.25119,1.903979 -0.27045,3.425623 -1.60862,1.608625 -2.00023,1.585577 -3.69406,-0.217419 z M 23.444194,39.557134 c -2.1674,-2.39495 0.80158,-4.733457 3.90258,-3.073853 1.79335,0.959769 1.89208,1.924484 0.34065,3.328506 -1.53966,1.39337 -2.82141,1.316447 -4.24323,-0.254653 z"
       id="path826"
       inkscape:connector-curvature="0"
       sodipodi:nodetypes="ccccccccccccccccccccccscccccscccssccccccscsssccscccsscsccccccccccsscccccsssssssscssscccccccccscsscsscscscccscccccccsccscssccsscccsccscccccssccscscscsscsccsssccssccccccsccsccssccscccccccscscccccsccccccccccccsscccccccccccccccccccccccccccccccccccccsccccccccccccccccccccccccccccccccccccccccscccccsscccccccccccccccccccccccccccccscccccscccccccccccccccccccccccccccccccsscccccccsccccccccccscscccccccccccccccccccccccccccccccccccscccccccccccccccccccccccccccccccccccccsccccccccccccccccccccccccccccccccccccccccccsssccscsccccccccscccscsccccsssscccccscssccccsccscccscccssccscccssscscccsccssccccssscccccsscccscscssccscsccccsscsscsccsccsccccscccscccccscscccsssccccssccsccscscccccccccscccccccccccscccscscsccscccccscccscscccscccsccscssccccsscccccsccccccscscccccccccccccccccsscccccsccsccscssccccccccccccssccscccccscccccccccccccccscssssssccccccccsscccsccscccscccccscsccccssccscscsccccccscccssssccscsscssssssscsssccccccscccsscscccsccsccsscssscssccscccsccsccsccscccsssscscsssscccccccsccssccccscccsc" />
  </g>
</svg>
